<svg height="512.00001pt" viewBox="0 0 512.00001 512.00001" width="512.00001pt" xmlns="http://www.w3.org/2000/svg"><g fill="#787680"><path d="m238.34375 0h35.3125v26.484375h-35.3125zm0 0"/><path d="m238.34375 132.414062h35.3125v35.308594h-35.3125zm0 0"/><path d="m238.34375 273.65625h35.3125v35.308594h-35.3125zm0 0"/><path d="m238.34375 414.894531h35.3125v61.792969h-35.3125zm0 0"/></g><path d="m176.550781 476.6875v35.3125h158.898438v-35.3125zm0 0" fill="#57565c"/><path d="m273.65625 26.484375h-229.519531l-44.136719 52.964844 44.136719 52.964843h423.726562l44.136719-52.964843-44.136719-52.964844zm0 0" fill="#ffeb99"/><path d="m61.792969 167.722656v105.933594h388.414062l44.136719-52.96875-44.136719-52.964844zm0 0" fill="#ff7956"/><path d="m70.621094 308.964844-44.136719 52.964844 44.136719 52.964843h388.414062v-105.929687zm0 0" fill="#00ccb3"/></svg>