<?xml version="1.0" standalone="no"?>
<!DOCTYPE svg PUBLIC "-//W3C//DTD SVG 20010904//EN"
 "http://www.w3.org/TR/2001/REC-SVG-20010904/DTD/svg10.dtd">
<svg version="1.0" xmlns="http://www.w3.org/2000/svg"
 width="700.000000pt" height="700.000000pt" viewBox="0 0 700.000000 700.000000"
 preserveAspectRatio="xMidYMid meet">
<metadata>
Created by potrace 1.11, written by Peter Selinger 2001-2013
</metadata>
<g transform="translate(0.000000,700.000000) scale(0.100000,-0.100000)"
fill="#000000" stroke="none">
<path d="M3400 6984 c-73 -20 -136 -58 -188 -113 -99 -107 -128 -249 -83 -400
25 -82 114 -180 200 -221 l50 -23 3 -61 c2 -34 2 -91 0 -128 l-4 -67 -381 -1
c-415 -1 -431 -2 -545 -31 -246 -63 -424 -223 -500 -448 l-18 -54 -71 -18
c-440 -111 -637 -616 -390 -1001 85 -134 253 -251 405 -283 29 -6 32 -10 33
-43 1 -74 30 -186 69 -269 102 -220 288 -354 550 -399 57 -9 293 -12 985 -12
822 0 918 2 990 17 44 10 87 20 95 23 8 3 37 14 64 23 48 18 147 79 199 125
108 94 203 287 222 447 4 34 12 66 18 71 7 4 39 16 72 26 89 26 201 93 270
161 30 29 99 124 120 164 49 99 66 165 70 285 8 245 -115 465 -333 593 -55 33
-179 76 -234 82 -3 1 -10 16 -13 34 -22 98 -130 261 -225 341 -45 37 -187 113
-225 120 -11 2 -38 9 -60 14 -85 22 -132 25 -520 26 l-400 2 -3 132 -3 132 28
10 c51 19 74 34 123 80 111 105 150 252 106 401 -59 197 -277 317 -476 263z"/>
<path d="M1195 3631 c-149 -42 -284 -176 -319 -316 -15 -59 -17 -71 -17 -125
0 -123 46 -235 133 -322 53 -54 159 -118 193 -118 13 0 15 -53 15 -448 l0
-447 -49 -18 c-120 -42 -230 -162 -271 -296 -17 -54 -21 -93 -21 -213 -1 -159
6 -186 52 -220 50 -38 138 -19 166 36 12 23 17 63 18 161 2 155 8 187 47 241
71 100 223 118 316 38 69 -59 82 -98 85 -270 2 -118 6 -154 19 -173 53 -76
162 -70 204 11 19 36 18 282 0 361 -35 143 -120 249 -253 313 -60 29 -73 40
-74 60 0 13 -1 206 -1 429 0 223 1 411 1 419 1 8 13 17 29 21 99 24 221 138
272 253 15 33 24 42 37 38 10 -2 34 -8 53 -12 19 -4 38 -9 43 -10 4 -1 17 -2
30 -3 53 -3 50 43 52 -818 2 -711 4 -809 19 -898 69 -390 245 -705 528 -940
192 -161 418 -273 654 -325 129 -29 182 -34 339 -34 221 -1 363 25 565 103
292 113 562 335 734 604 98 153 199 404 220 547 3 19 9 58 14 85 14 77 15 119
16 918 1 411 2 747 3 747 8 0 160 31 175 36 14 4 22 -3 34 -33 48 -114 175
-233 277 -258 26 -7 27 -10 28 -69 0 -69 0 -779 -1 -813 0 -13 -6 -23 -12 -23
-32 0 -138 -62 -184 -107 -109 -107 -141 -200 -143 -411 -2 -155 8 -198 53
-227 32 -21 98 -22 127 -2 48 34 53 53 55 205 2 172 14 213 80 271 70 61 164
74 246 31 49 -26 73 -51 100 -109 17 -37 20 -66 22 -190 2 -155 7 -174 55
-208 26 -17 90 -20 120 -4 50 27 61 65 61 212 0 75 -5 161 -10 190 -26 137
-127 266 -256 326 l-74 34 0 44 c-1 25 -1 182 -1 350 0 551 -3 492 29 501 15
4 29 8 32 8 3 1 23 12 45 26 174 106 255 269 231 466 -14 119 -103 250 -216
319 -137 83 -292 90 -439 18 -115 -56 -185 -137 -241 -280 -8 -23 -19 -33 -34
-34 -11 0 -28 -2 -36 -4 -8 -2 -51 -10 -95 -19 -44 -8 -98 -18 -120 -23 -46
-10 -2887 -9 -2925 1 -27 7 -110 25 -150 32 -86 15 -120 27 -120 42 0 8 -16
49 -36 89 -96 193 -320 292 -529 234z"/>
</g>
</svg>
